<?xml version="1.0" encoding="UTF-8" standalone="no"?>
<svg
   xmlns:dc="http://purl.org/dc/elements/1.1/"
   xmlns:cc="http://creativecommons.org/ns#"
   xmlns:rdf="http://www.w3.org/1999/02/22-rdf-syntax-ns#"
   xmlns:svg="http://www.w3.org/2000/svg"
   xmlns="http://www.w3.org/2000/svg"
   viewBox="0 0 600 373.48001"
   height="373.48001"
   width="600"
   xml:space="preserve"
   id="svg2"
   version="1.1"><metadata
     id="metadata8"><rdf:RDF><cc:Work
         rdf:about=""><dc:format>image/svg+xml</dc:format><dc:type
           rdf:resource="http://purl.org/dc/dcmitype/StillImage" /></cc:Work></rdf:RDF></metadata><defs
     id="defs6" /><g
     transform="matrix(1.3333333,0,0,-1.3333333,0,373.48)"
     id="g10"><g
       transform="scale(0.1)"
       id="g12"><path
         id="path14"
         style="fill:#2e2d2d;fill-opacity:1;fill-rule:nonzero;stroke:none"
         d="m 2554.47,1989.78 c 13.85,-2.22 27.7,-4.44 41.55,-6.73 44.95,-5.78 89.67,-13.45 133.99,-22.87 64.59,-11.4 129.01,-23.43 193.35,-36.09 75.9,35.45 135.1,110.32 144.84,194.54 7.12,61.8 -12.59,116.02 -46.46,162.48 -3.96,3.64 -7.99,7.12 -12.11,10.53 -85.79,70.91 -189.55,104.15 -297.35,120.77 -71.7,-22.08 -143.41,-44.16 -215.11,-66.16 -284.21,-87.38 -569.37,-170.96 -854.84,-253.74 43.53,-2.38 86.98,-5.38 130.27,-8.87 261.73,-20.66 522.59,-52.63 781.87,-93.86" /><path
         id="path16"
         style="fill:#2e2d2d;fill-opacity:1;fill-rule:nonzero;stroke:none"
         d="m 4352.08,323.469 c -245.5,113.57 -490.62,228.172 -734.3,345.621 -189.87,91.57 -383.06,177.601 -572.53,270.84 h -0.08 c -3.09,1.5 -6.26,3 -9.34,4.59 6.09,1.82 12.11,3.64 18.12,5.46 0.08,0 0.08,0 0.08,0 2.85,0.872 5.62,1.661 8.47,2.532 159.55,47.798 319.11,95.838 478.98,142.458 1.5,1.03 3.09,2.06 4.59,3.09 60.63,41.55 108.03,119.5 83.66,194.3 -21.92,67.43 -88.88,106.68 -149.27,135.17 -22.24,10.53 -44.79,20.5 -67.59,29.92 -37.36,6.02 -74.79,11.79 -112.31,17.17 -6.48,0.96 -12.89,1.83 -19.39,2.7 -154.41,21.6 -309.85,37.19 -465.53,46.85 -77.4,4.91 -154.88,8.23 -232.36,10.21 -291.49,7.28 -583.14,2.06 -873.12,-30.63 -0.72,-0.08 -0.88,1.11 -0.24,1.19 162.09,21.84 325.36,40.36 488.72,48.43 225.24,11.16 451.04,10.61 675.81,-6.48 11.72,2.84 23.43,7.04 35.22,12.74 46.46,22.39 82.79,65.05 99.25,114.91 26.83,81.13 -5.7,166.84 -70.05,212.98 -3.24,1.27 -6.56,2.53 -9.81,3.8 0,0 0,0 -0.08,0 -399.52,79.7 -804.35,136.29 -1210.35,164.94 -56.67,3.95 -113.66,7.12 -170.64,9.02 -6.41,0.24 -12.74,0.4 -19.08,0.48 -195.64,5.45 -392.08,-5.38 -582.418,-52.16 -50.336,-12.42 -100.043,-27.39 -148.637,-44.88 15.118,-88.24 91.887,-155.91 179.739,-198.41 0.078,0 0.078,-0.08 0.156,-0.08 57.06,-18.52 114.92,-34.19 173.88,-46.69 107.48,-22.72 216.22,-35.54 325.84,-40.05 41.79,-1.66 83.02,-1.35 124.1,0.24 39.89,1.58 79.54,4.27 119.51,7.28 -36.41,-7.05 -72.9,-13.54 -109.54,-19.39 -0.08,0 -0.16,0 -0.16,0 -193.98,-30.87 -390.73,-44.09 -586.85,-35.3 -73.214,3.24 -146.104,9.34 -218.839,17.8 -65.214,7.6 -132.726,14.49 -195.328,34.91 -65.293,21.29 -129.402,71.7 -146.183,136.6 C 324.336,1788.99 186.543,1743.72 50.0195,1695.52 327.34,1583.61 601.184,1463.55 875.496,1344.28 1484.43,1079.46 2093.45,814.719 2702.39,549.898 L 3615.8,152.75 c 97.58,-42.418 195.17,-84.7617 292.67,-127.2617 133.84,66.2422 268.38,131.1407 403.41,194.5427 43.68,20.489 87.21,41.231 130.82,62.039 -30.23,13.621 -60.47,27.469 -90.62,41.399" /><path
         id="path18"
         style="fill:#100f0d;fill-opacity:1;fill-rule:nonzero;stroke:none"
         d="M 4311.88,220.031 C 4176.85,156.629 4042.31,91.7305 3908.47,25.4883 3810.97,67.9883 3713.38,110.332 3615.8,152.75 L 2702.39,549.898 C 2093.45,814.719 1484.43,1079.46 875.496,1344.28 601.184,1463.55 327.34,1583.61 50.0195,1695.52 c 136.5235,48.2 274.3165,93.47 414.1605,130.11 16.781,-64.9 80.89,-115.31 146.183,-136.6 62.602,-20.42 130.114,-27.31 195.328,-34.91 72.735,-8.46 145.625,-14.56 218.839,-17.8 196.12,-8.79 392.87,4.43 586.85,35.3 0,0 0.08,0 0.16,0 36.64,5.85 73.13,12.34 109.54,19.39 -39.97,-3.01 -79.62,-5.7 -119.51,-7.28 -41.08,-1.59 -82.31,-1.9 -124.1,-0.24 -109.62,4.51 -218.36,17.33 -325.84,40.05 -58.96,12.5 -116.82,28.17 -173.88,46.69 -0.078,0 -0.078,0.08 -0.156,0.08 -87.852,42.5 -164.621,110.17 -179.739,198.41 48.594,17.49 98.301,32.46 148.637,44.88 190.338,46.78 386.778,57.61 582.418,52.16 6.34,-0.08 12.67,-0.24 19.08,-0.48 56.98,-1.9 113.97,-5.07 170.64,-9.02 406,-28.65 810.83,-85.24 1210.35,-164.94 0.08,0 0.08,0 0.08,0 3.25,-1.27 6.57,-2.53 9.81,-3.8 64.35,-46.14 96.88,-131.85 70.05,-212.98 -16.46,-49.86 -52.79,-92.52 -99.25,-114.91 -11.79,-5.7 -23.5,-9.9 -35.22,-12.74 -224.77,17.09 -450.57,17.64 -675.81,6.48 -163.36,-8.07 -326.63,-26.59 -488.72,-48.43 -0.64,-0.08 -0.48,-1.27 0.24,-1.19 289.98,32.69 581.63,37.91 873.12,30.63 77.48,-1.98 154.96,-5.3 232.36,-10.21 155.68,-9.66 311.12,-25.25 465.53,-46.85 6.5,-0.87 12.91,-1.74 19.39,-2.7 37.52,-5.38 74.95,-11.15 112.31,-17.17 22.8,-9.42 45.35,-19.39 67.59,-29.92 60.39,-28.49 127.35,-67.74 149.27,-135.17 24.37,-74.8 -23.03,-152.75 -83.66,-194.3 -1.5,-1.03 -3.09,-2.06 -4.59,-3.09 -159.87,-46.62 -319.43,-94.66 -478.98,-142.458 -2.85,-0.871 -5.62,-1.66 -8.47,-2.532 0,0 0,0 -0.08,0 -6.01,-1.82 -12.03,-3.64 -18.12,-5.46 3.08,-1.59 6.25,-3.09 9.34,-4.59 h 0.08 c 189.47,-93.239 382.66,-179.27 572.53,-270.84 243.68,-117.449 488.8,-232.051 734.3,-345.621 30.15,-13.93 60.39,-27.778 90.62,-41.399 -43.61,-20.808 -87.14,-41.55 -130.82,-62.039 z M 2497.17,2346.25 c 71.7,22 143.41,44.08 215.11,66.16 107.8,-16.62 211.56,-49.86 297.35,-120.77 4.12,-3.41 8.15,-6.89 12.11,-10.53 33.87,-46.46 53.58,-100.68 46.46,-162.48 -9.74,-84.22 -68.94,-159.09 -144.84,-194.54 -64.34,12.66 -128.76,24.69 -193.35,36.09 -44.32,9.42 -89.04,17.09 -133.99,22.87 -13.85,2.29 -27.7,4.51 -41.55,6.73 -259.28,41.23 -520.14,73.2 -781.87,93.86 -43.29,3.49 -86.74,6.49 -130.27,8.87 285.47,82.78 570.63,166.36 854.84,253.74 z M 4463.2,291.891 c -388.76,187.257 -780.29,368.339 -1172.53,548.55 -75.34,34.661 -150.37,70.2 -225.96,104.707 90.47,24.223 180.85,48.282 271.23,72.652 53.98,6.57 119.83,21.21 177.29,48.12 18.75,5.07 37.51,10.21 56.19,15.36 159.87,44.16 320.38,87.06 479.69,133.83 10.37,3.09 20.74,6.09 31.11,9.18 -10.21,5.7 -20.42,11.4 -30.71,17.02 -71.55,39.65 -143.81,77.96 -215.99,116.5 -14.87,7.91 -29.75,15.91 -44.63,23.82 -23.19,12.35 -46.46,24.77 -69.73,37.2 h -0.08 c -1.34,0.71 -2.61,1.42 -3.96,2.14 124.81,50.41 247.49,110.01 362.81,179.18 6.72,3.96 13.45,7.99 20.1,12.11 -8.39,3.4 -16.86,6.8 -25.33,10.05 -67.75,26.28 -137.24,48.04 -207.04,68.46 -23.35,33.64 -49.07,65.85 -76.45,96 145.62,27.39 289.51,71.87 427.69,128.21 9.97,4.04 19.87,8.16 29.76,12.35 -10.84,5.15 -21.77,10.29 -32.69,15.28 -283.18,132.09 -577.91,240.04 -870.19,350.85 182.82,70.91 364.3,145.7 546.57,217.88 129.4,51.29 259.44,102.18 387.89,156.23 11.4,4.83 22.79,9.58 34.11,14.48 -11.79,3.96 -23.66,7.84 -35.54,11.72 -61.41,19.78 -123.46,38.38 -186.46,55.4 -49.78,13.46 -99.57,27.15 -149.35,40.84 -0.08,0 -0.08,0 -0.08,0 -13.61,3.72 -27.22,7.44 -40.75,11.08 -8.79,-2.69 -17.58,-5.38 -26.36,-8.23 -64.9,-20.18 -129.72,-40.68 -194.7,-60.63 -185.11,-56.9 -370.08,-114.2 -555.11,-171.11 -150.22,-46.22 -300.36,-92.44 -450.58,-138.66 -3.72,-1.1 -7.51,-2.29 -11.24,-3.48 -220.18,-67.67 -440.44,-135.5 -660.54,-203.48 -128.45,-39.73 -256.42,-80.89 -384.48,-121.65 -210.29,10.45 -422,5.54 -628.406,-38.22 -65.215,-13.85 -130.274,-31.66 -193.668,-54.06 -2.375,-0.79 -4.746,-1.58 -7.125,-2.46 -54.766,-19.7 -108.348,-42.81 -159.715,-69.8 -1.816,-0.87 -3.637,-1.82 -5.457,-2.85 -46.301,-24.61 -90.699,-52.47 -132.644,-83.81 -7.758,-1.43 -15.434,-2.93 -23.192,-4.44 -1.664,-0.31 -3.324,-0.63 -5.066,-1.02 h -0.078 C 310.324,1807.35 161.93,1766.43 19.3125,1707.79 12.8203,1705.17 6.41016,1702.48 0,1699.71 c 8.86328,-4.19 17.7266,-8.39 26.5117,-12.5 h 0.0781 C 568.098,1431.57 1122.67,1202.68 1671.53,963.988 2280.47,699.25 2889.49,434.43 3498.43,169.691 L 3871.75,7.35938 3888.69,0 h 0.08 c 8.63,3.71875 17.25,7.44141 25.88,11.2422 4.51,1.8984 8.94,3.7969 13.37,5.7773 130.99,57.0625 261.42,115.3905 391.14,175.0705 53.42,24.609 107.24,48.832 161.06,73.129 6.56,3 13.21,5.929 19.78,8.941 -12.27,5.942 -24.53,11.871 -36.8,17.731" /></g></g></svg>